# xmcd
#
# Track frame offsets: 
#        150
#        10631
#        21702
#        37052
#        50356
#        60421
#        70623
#        85511
#        102004
#        110611
#        122164
#        135434
#        153134
#        164504
#        173999
#        191323
#        200041
#
# Disc length: 2792 seconds
#
# Revision: 0
# Processed by: cddbd v1.5.2PL0 Copyright (c) Steve Scherf et al.
# Submitted via: ExactAudioCopy v0.99pb5
#
DISCID=da0ae611
DTITLE=Whisky Puppy - Unleashed
DYEAR=2009
DGENRE=Bluegrass
TTITLE0=Adam And Eve In The Garden
TTITLE1=Cold Wind
TTITLE2=The Whisky Is Gone
TTITLE3=Echoes From The Hills
TTITLE4=I Wish I Was A Single Girl Again
TTITLE5=Whitesburg
TTITLE6=Come Home Daddy
TTITLE7=Tip Out Tonight
TTITLE8=Smoke Behind The Clouds
TTITLE9=High Mountains
TTITLE10=That's No Way To Get Along
TTITLE11=Logan County Bues - Sally Ann
TTITLE12=The Devil Comes On Tuesday
TTITLE13=Tel It To Me
TTITLE14=Prohibition Blues
TTITLE15=Saginaw Way
TTITLE16=Bringing In The Georgia Mail
EXTD=
EXTT0=
EXTT1=
EXTT2=
EXTT3=
EXTT4=
EXTT5=
EXTT6=
EXTT7=
EXTT8=
EXTT9=
EXTT10=
EXTT11=
EXTT12=
EXTT13=
EXTT14=
EXTT15=
EXTT16=
PLAYORDER=
